REM DIRINDEX 1\2\6,1\2\7,1\2\8,1\3\9,1\3\10,1\3\11,1\4\12,1\4\13,1\4\14,1\5\15,1\5\16,1\5\17,1\5\18
REM DIRNAME folder01,folder02,folder03,folder04,folder05,folder06,folder07,folder08,folder09,folder10,folder11,folder12,folder13,folder14,folder15,folder16,folder17,folder18
TITLE ""
FILE "2Q_k_001-010.mp3" MP3
  TRACK 01 AUDIO
    TITLE "3:cjc019_1578"
    INDEX 01 00:00:00
  TRACK 02 AUDIO
    TITLE "0:"
    INDEX 01 00:02:73
  TRACK 03 AUDIO
    TITLE "9:cjc019_1579"
    INDEX 01 00:04:07
  TRACK 04 AUDIO
    TITLE "0:"
    INDEX 01 00:06:35
  TRACK 05 AUDIO
    TITLE "10:cjc019_1580"
    INDEX 01 00:07:11
  TRACK 06 AUDIO
    TITLE "0:"
    INDEX 01 00:09:26
  TRACK 07 AUDIO
    TITLE "11:cjc019_1581"
    INDEX 01 00:10:00
  TRACK 08 AUDIO
    TITLE "11:cjc019_1582"
    INDEX 01 00:12:60
  TRACK 09 AUDIO
    TITLE "0:"
    INDEX 01 00:16:71
  TRACK 10 AUDIO
    TITLE "9:cjc019_1583"
    INDEX 01 00:17:45
  TRACK 11 AUDIO
    TITLE "0:"
    INDEX 01 00:19:50
  TRACK 12 AUDIO
    TITLE "10:cjc019_1584"
    INDEX 01 00:20:32
  TRACK 13 AUDIO
    TITLE "0:"
    INDEX 01 00:22:17
  TRACK 14 AUDIO
    TITLE "11:cjc019_1585"
    INDEX 01 00:22:70
  TRACK 15 AUDIO
    TITLE "11:cjc019_1586"
    INDEX 01 00:25:31
  TRACK 16 AUDIO
    TITLE "0:"
    INDEX 01 00:29:64
  TRACK 17 AUDIO
    TITLE "9:cjc019_1587"
    INDEX 01 00:30:40
  TRACK 18 AUDIO
    TITLE "0:"
    INDEX 01 00:32:07
  TRACK 19 AUDIO
    TITLE "10:cjc019_1588"
    INDEX 01 00:32:60
  TRACK 20 AUDIO
    TITLE "0:"
    INDEX 01 00:34:51
  TRACK 21 AUDIO
    TITLE "11:cjc019_1589"
    INDEX 01 00:35:29
  TRACK 22 AUDIO
    TITLE "11:cjc019_1590"
    INDEX 01 00:39:03
  TRACK 23 AUDIO
    TITLE "0:"
    INDEX 01 00:45:06
  TRACK 24 AUDIO
    TITLE "9:cjc019_1591"
    INDEX 01 00:45:57
  TRACK 25 AUDIO
    TITLE "0:"
    INDEX 01 00:48:24
  TRACK 26 AUDIO
    TITLE "10:cjc019_1592"
    INDEX 01 00:49:02
  TRACK 27 AUDIO
    TITLE "0:"
    INDEX 01 00:51:38
  TRACK 28 AUDIO
    TITLE "11:cjc019_1593"
    INDEX 01 00:52:14
  TRACK 29 AUDIO
    TITLE "11:cjc019_1594"
    INDEX 01 00:59:26
  TRACK 30 AUDIO
    TITLE "0:"
    INDEX 01 01:02:69
  TRACK 31 AUDIO
    TITLE "9:cjc019_1595"
    INDEX 01 01:03:47
  TRACK 32 AUDIO
    TITLE "0:"
    INDEX 01 01:05:17
  TRACK 33 AUDIO
    TITLE "10:cjc019_1596"
    INDEX 01 01:06:02
  TRACK 34 AUDIO
    TITLE "0:"
    INDEX 01 01:09:16
  TRACK 35 AUDIO
    TITLE "11:cjc019_1597"
    INDEX 01 01:09:67
  TRACK 36 AUDIO
    TITLE "11:cjc019_1598"
    INDEX 01 01:11:27
  TRACK 37 AUDIO
    TITLE "0:"
    INDEX 01 01:15:15
  TRACK 38 AUDIO
    TITLE "9:cjc019_1599"
    INDEX 01 01:15:68
  TRACK 39 AUDIO
    TITLE "0:"
    INDEX 01 01:17:67
  TRACK 40 AUDIO
    TITLE "10:cjc019_1600"
    INDEX 01 01:18:47
  TRACK 41 AUDIO
    TITLE "0:"
    INDEX 01 01:21:04
  TRACK 42 AUDIO
    TITLE "11:cjc019_1601"
    INDEX 01 01:21:57
  TRACK 43 AUDIO
    TITLE "11:cjc019_1602"
    INDEX 01 01:27:03
  TRACK 44 AUDIO
    TITLE "0:"
    INDEX 01 01:31:04
  TRACK 45 AUDIO
    TITLE "9:cjc019_1603"
    INDEX 01 01:31:53
  TRACK 46 AUDIO
    TITLE "0:"
    INDEX 01 01:33:48
  TRACK 47 AUDIO
    TITLE "10:cjc019_1604"
    INDEX 01 01:34:22
  TRACK 48 AUDIO
    TITLE "0:"
    INDEX 01 01:36:54
  TRACK 49 AUDIO
    TITLE "11:cjc019_1605"
    INDEX 01 01:37:28
  TRACK 50 AUDIO
    TITLE "11:cjc019_1606"
    INDEX 01 01:38:67
  TRACK 51 AUDIO
    TITLE "0:"
    INDEX 01 01:42:57
  TRACK 52 AUDIO
    TITLE "9:cjc019_1607"
    INDEX 01 01:43:37
  TRACK 53 AUDIO
    TITLE "0:"
    INDEX 01 01:45:28
  TRACK 54 AUDIO
    TITLE "10:cjc019_1608"
    INDEX 01 01:46:10
  TRACK 55 AUDIO
    TITLE "0:"
    INDEX 01 01:48:26
  TRACK 56 AUDIO
    TITLE "11:cjc019_1609"
    INDEX 01 01:48:73
  TRACK 57 AUDIO
    TITLE "11:cjc019_1610"
    INDEX 01 01:51:56
  TRACK 58 AUDIO
    TITLE "0:"
    INDEX 01 01:54:31
  TRACK 59 AUDIO
    TITLE "9:cjc019_1611"
    INDEX 01 01:55:11
  TRACK 60 AUDIO
    TITLE "0:"
    INDEX 01 01:57:45
  TRACK 61 AUDIO
    TITLE "10:cjc019_1612"
    INDEX 01 01:58:17
  TRACK 62 AUDIO
    TITLE "0:"
    INDEX 01 02:01:01
  TRACK 63 AUDIO
    TITLE "11:cjc019_1613"
    INDEX 01 02:01:50
  TRACK 64 AUDIO
    TITLE "11:cjc019_1614"
    INDEX 01 02:03:43
  TRACK 65 AUDIO
    TITLE "0:"
    INDEX 01 02:08:07
  TRACK 66 AUDIO
    TITLE "9:cjc019_1615"
    INDEX 01 02:08:62
  TRACK 67 AUDIO
    TITLE "0:"
    INDEX 01 02:10:65
  TRACK 68 AUDIO
    TITLE "10:cjc019_1616"
    INDEX 01 02:11:43
  TRACK 69 AUDIO
    TITLE "0:"
    INDEX 01 02:15:13
  TRACK 70 AUDIO
    TITLE "11:cjc019_1617"
    INDEX 01 02:15:66
  TRACK 71 AUDIO
    TITLE "11:cjc019_1618"
    INDEX 01 02:19:68
  TRACK 72 AUDIO
    TITLE "0:"
    INDEX 01 02:22:64
